<svg width="24" height="25" viewBox="0 0 24 25" fill="none" xmlns="http://www.w3.org/2000/svg">
<path fill-rule="evenodd" clip-rule="evenodd" d="M19.7828 4.41849C20.1313 4.3359 20.3743 4.25469 20.5734 4.16939C20.8524 4.04985 21.0838 3.90665 21.4492 3.66548C21.7563 3.4628 22.1499 3.44515 22.4739 3.61953C22.7979 3.79391 23 4.13214 23 4.5001C23 5.58104 22.8654 6.46697 22.5535 7.24665C22.2911 7.90245 21.9226 8.43511 21.4817 8.91992C21.2954 12.2831 20.3219 14.9241 18.8336 16.9251C17.2911 18.999 15.2386 20.3271 13.0751 21.0708C10.9179 21.8123 8.63864 21.978 6.59672 21.727C4.56818 21.4776 2.69306 20.806 1.38607 19.7894C1.02814 19.511 0.902328 19.0267 1.07953 18.6093C1.25672 18.1919 1.69258 17.946 2.14146 18.0101C3.42742 18.1939 4.66532 17.9015 5.68321 17.4834C5.48283 17.3744 5.2939 17.2564 5.1183 17.1349C4.19076 16.4927 3.44242 15.621 3.10558 14.9474C2.9662 14.6686 2.96476 14.3408 3.10169 14.0608C3.17233 13.9164 3.27563 13.7932 3.40105 13.6994C2.04679 12.5817 1.50001 11.0358 1.50001 10.0001C1.50001 9.69216 1.64188 9.4014 1.88461 9.21189C1.98666 9.13221 2.10176 9.07417 2.2231 9.03921C2.12176 8.74246 2.04312 8.44266 1.98317 8.15241C1.71741 6.86554 1.741 5.41308 2.02986 4.25757C2.12871 3.86216 2.45766 3.5663 2.8613 3.50977C3.26495 3.45323 3.66251 3.64734 3.86619 4.00038C4.9437 5.86806 6.93117 7.00968 8.78088 7.68592C9.65051 8.00386 10.456 8.20646 11.0596 8.33103C11.1899 7.11043 11.5308 6.10384 12.0538 5.30435C12.7439 4.24956 13.7064 3.62549 14.7401 3.34722C16.5227 2.86732 18.5008 3.41407 19.7828 4.41849ZM10.7484 10.3087C10.0633 10.1711 9.12173 9.94001 8.09414 9.56432C6.73692 9.06813 5.1609 8.29442 3.84073 7.09595C3.86436 7.3165 3.89791 7.53516 3.94184 7.7479C4.16309 8.81924 4.57421 9.41923 4.94722 9.60574C5.40343 9.83384 5.61486 10.3687 5.43789 10.8471C5.19829 11.4948 4.56811 11.548 3.99552 11.4048C4.45605 12.0953 5.28379 12.7837 6.66441 13.0138C7.14059 13.0931 7.49209 13.5014 7.49988 13.984C7.50766 14.4667 7.1695 14.8861 6.69612 14.9807L5.82566 15.1548C5.95882 15.2706 6.10301 15.3841 6.25672 15.4905C6.95363 15.973 7.65338 16.181 8.25747 16.03C8.70992 15.9169 9.18048 16.1316 9.39164 16.5474C9.6028 16.9632 9.49847 17.4698 9.14019 17.7684C8.49627 18.3044 7.74426 18.7344 6.99059 19.0914C6.63677 19.259 6.24136 19.4244 5.81191 19.57C6.1422 19.6404 6.48587 19.6983 6.8408 19.7419C8.61137 19.9596 10.5821 19.8129 12.4249 19.1794C14.2614 18.5482 15.959 17.4388 17.2289 15.7315C18.4971 14.0265 19.382 11.6669 19.5007 8.46315C19.51 8.21091 19.6144 7.97154 19.7929 7.79306C20.2426 7.34341 20.6141 6.82802 20.7969 6.21455C20.477 6.31427 20.1168 6.40059 19.6878 6.48261C19.3623 6.54483 19.0272 6.44181 18.7929 6.20751C18.0284 5.44299 16.5164 4.94023 15.26 5.27846C14.6686 5.43765 14.1311 5.78228 13.7275 6.3993C13.3153 7.02928 13 8.01069 13 9.50015C13 9.78312 12.8801 10.0528 12.6701 10.2425C12.1721 10.692 11.334 10.4263 10.7484 10.3087Z" fill="#0F0F0F"/>
</svg>
